<svg width="80" height="80" viewBox="0 0 500 500" fill="none" xmlns="http://www.w3.org/2000/svg">
<g clip-path="url(#clip0_15_93)">
<rect width="500" height="500" fill="white"/>
<path d="M137.729 133.267L22 250.479L137.729 366.209L254.942 250.479L137.729 133.267Z" stroke="#383429" stroke-width="1.97828"/>
<path d="M138.718 156.511L23.4838 271.746L138.718 387.97L255.437 271.746L138.718 156.511Z" stroke="#383429" stroke-width="1.97828"/>
<path d="M137.729 112L23.4838 228.224L137.729 344.447L255.437 228.224L137.729 112Z" stroke="#383429" stroke-width="1.97828"/>
<path d="M127.838 207.452H103.109V215.365H91.2395V289.056H123.881L132.289 295.485C136.091 294.637 136.085 294.289 135.751 292.518L124.87 283.616H95.6906V220.805H103.109V277.681H127.838C127.838 277.681 138.224 283.616 139.213 283.616C140.202 283.616 141.021 282.302 142.18 281.143L127.838 272.735H107.56V211.903H127.838C132.891 213.347 135.323 214.863 139.213 218.332V269.768C141.294 271.824 142.606 271.718 145.148 269.768V218.332C149.064 214.746 151.414 212.966 157.017 211.903H176.305V241.083C178.235 241.789 179.321 241.836 181.251 241.083V223.278H189.659V241.083C189.659 241.083 191.95 241.964 194.11 241.083V218.332H181.251V207.452H153.555C149.16 208.088 146.658 210.409 142.18 215.365C137.276 210.851 134.243 208.895 127.838 207.452Z" fill="#A58D34" stroke="#A58D34" stroke-width="1.97828"/>
<path d="M164.436 279.659L138.224 305.376C136.465 305.673 134.232 303.602 135.256 301.914C135.547 301.436 140.037 296.474 142.18 294.001C145.858 278.333 148.45 269.907 158.996 258.887C169.421 250.041 176.515 247.737 193.121 246.523C193.346 255.73 192.223 263.847 191.637 265.316C191.051 266.786 185.006 272.592 182.24 273.229C182.24 273.229 185.228 274.274 185.208 277.681C185.188 281.087 170.651 292.229 158.007 294.99C155.544 294.229 156.031 293.489 156.523 290.045C167.456 287.684 179.768 277.681 179.768 277.681C179.768 277.681 180.641 275.529 173.338 275.702C172.529 274.573 172.463 273.829 173.338 272.24C186.143 268.361 190.042 264.113 188.175 250.974C162.769 256.422 155.031 265.384 148.61 288.067L160.974 275.702C163.73 275.862 164.272 276.94 164.436 279.659Z" fill="#9A8738" stroke="#9A8738" stroke-width="0.989138"/>
<path d="M276.165 217.444C275.664 217.444 275.225 217.268 274.849 216.917C274.474 216.541 274.286 216.103 274.286 215.602V195.793H268.384C267.883 195.793 267.445 195.605 267.069 195.229C266.718 194.854 266.543 194.415 266.543 193.914C266.543 193.388 266.718 192.949 267.069 192.598C267.445 192.248 267.883 192.072 268.384 192.072H283.946C284.472 192.072 284.91 192.248 285.261 192.598C285.612 192.949 285.787 193.388 285.787 193.914C285.787 194.44 285.612 194.891 285.261 195.267C284.91 195.618 284.472 195.793 283.946 195.793H278.007V215.602C278.007 216.103 277.819 216.541 277.443 216.917C277.092 217.268 276.666 217.444 276.165 217.444ZM290.464 217.481C289.988 217.481 289.562 217.306 289.186 216.955C288.835 216.579 288.66 216.153 288.66 215.677V194.027C288.66 193.526 288.835 193.1 289.186 192.749C289.562 192.373 290.013 192.185 290.539 192.185C291.04 192.185 291.454 192.373 291.779 192.749C292.105 193.1 292.268 193.526 292.268 194.027V202.108C293.095 201.055 294.035 200.216 295.087 199.59C296.139 198.938 297.192 198.612 298.244 198.612C300.224 198.612 301.615 199.615 302.416 201.619C303.218 203.599 303.619 206.744 303.619 211.054C303.619 213.484 303.582 215.05 303.507 215.752C303.481 216.228 303.294 216.629 302.943 216.955C302.617 217.281 302.216 217.444 301.74 217.444C301.214 217.444 300.788 217.281 300.462 216.955C300.136 216.604 299.973 216.178 299.973 215.677C299.973 215.176 299.986 214.762 300.011 214.437L300.048 211.317C300.048 207.683 299.848 205.253 299.447 204.025C299.071 202.797 298.595 202.183 298.019 202.183C297.292 202.183 296.553 202.521 295.801 203.198C295.049 203.849 294.398 204.589 293.847 205.416C293.32 206.217 292.944 206.856 292.719 207.333C292.418 208.009 292.268 208.899 292.268 210.001V215.602C292.268 216.178 292.093 216.642 291.742 216.992C291.391 217.318 290.965 217.481 290.464 217.481ZM316.636 217.444C314.857 217.444 313.254 217.068 311.825 216.316C310.422 215.539 309.32 214.449 308.518 213.046C307.716 211.618 307.315 209.939 307.315 208.009C307.315 206.43 307.666 204.927 308.367 203.499C309.094 202.045 310.096 200.88 311.374 200.003C312.677 199.126 314.156 198.687 315.81 198.687C317.338 198.687 318.641 199.001 319.719 199.627C320.821 200.229 321.648 200.955 322.199 201.807C322.751 202.659 323.026 203.423 323.026 204.1C323.026 204.426 322.926 204.739 322.726 205.04C322.525 205.34 322.237 205.604 321.861 205.829L311.788 211.618C312.139 212.394 312.752 212.996 313.63 213.422C314.532 213.848 315.534 214.061 316.636 214.061C318.09 214.061 319.33 213.522 320.358 212.444C320.759 212.044 321.172 211.843 321.598 211.843C322.099 211.843 322.513 212.006 322.838 212.332C323.189 212.657 323.365 213.058 323.365 213.534C323.365 213.935 323.214 214.311 322.914 214.662C322.212 215.439 321.272 216.103 320.095 216.654C318.942 217.18 317.789 217.444 316.636 217.444ZM319.305 203.649C319.004 203.123 318.579 202.734 318.027 202.484C317.476 202.208 316.824 202.07 316.073 202.07C314.644 202.07 313.442 202.559 312.464 203.536C311.512 204.514 310.961 205.716 310.81 207.145C310.76 207.521 310.735 207.972 310.735 208.498L319.305 203.649Z" fill="#A58D34"/>
<path d="M280.406 231.014C283.313 231.014 285.698 231.39 287.56 232.141C289.455 232.86 290.859 233.954 291.774 235.424C292.689 236.894 293.146 238.74 293.146 240.961C293.146 242.823 292.803 244.375 292.117 245.616C291.431 246.857 290.549 247.854 289.471 248.605C288.426 249.324 287.315 249.895 286.139 250.32L295.743 266H290.598L282.121 251.545H275.163V266H270.753V231.014H280.406ZM280.161 234.836H275.163V247.821H280.406C282.301 247.821 283.852 247.576 285.061 247.086C286.27 246.563 287.152 245.812 287.707 244.832C288.295 243.852 288.589 242.627 288.589 241.157C288.589 239.622 288.279 238.397 287.658 237.482C287.07 236.567 286.155 235.898 284.914 235.473C283.673 235.048 282.088 234.836 280.161 234.836ZM315.934 239.246C318.188 239.246 320.116 239.736 321.716 240.716C323.35 241.696 324.591 243.084 325.44 244.881C326.322 246.645 326.763 248.719 326.763 251.104V253.701H308.78C308.846 256.674 309.597 258.944 311.034 260.512C312.504 262.047 314.546 262.815 317.159 262.815C318.825 262.815 320.295 262.668 321.569 262.374C322.876 262.047 324.215 261.59 325.587 261.002V264.775C324.248 265.363 322.925 265.788 321.618 266.049C320.312 266.343 318.76 266.49 316.963 266.49C314.481 266.49 312.276 265.984 310.348 264.971C308.454 263.958 306.967 262.456 305.889 260.463C304.844 258.438 304.321 255.971 304.321 253.064C304.321 250.189 304.795 247.723 305.742 245.665C306.722 243.607 308.078 242.023 309.809 240.912C311.573 239.801 313.615 239.246 315.934 239.246ZM315.885 242.774C313.827 242.774 312.194 243.444 310.985 244.783C309.809 246.09 309.107 247.919 308.878 250.271H322.255C322.255 248.768 322.027 247.462 321.569 246.351C321.112 245.24 320.41 244.375 319.462 243.754C318.548 243.101 317.355 242.774 315.885 242.774ZM348.542 239.295C351.743 239.295 354.111 239.997 355.647 241.402C357.182 242.807 357.95 245.044 357.95 248.115V266H354.814L353.981 262.276H353.785C353.033 263.223 352.249 264.024 351.433 264.677C350.649 265.298 349.734 265.755 348.689 266.049C347.676 266.343 346.435 266.49 344.965 266.49C343.397 266.49 341.976 266.212 340.702 265.657C339.46 265.102 338.48 264.252 337.762 263.109C337.043 261.933 336.684 260.463 336.684 258.699C336.684 256.086 337.713 254.077 339.771 252.672C341.829 251.235 344.997 250.451 349.277 250.32L353.736 250.173V248.605C353.736 246.416 353.262 244.897 352.315 244.048C351.367 243.199 350.028 242.774 348.297 242.774C346.925 242.774 345.618 242.986 344.377 243.411C343.135 243.803 341.976 244.26 340.898 244.783L339.575 241.549C340.718 240.928 342.074 240.406 343.642 239.981C345.21 239.524 346.843 239.295 348.542 239.295ZM349.816 253.309C346.549 253.44 344.279 253.962 343.005 254.877C341.763 255.792 341.143 257.082 341.143 258.748C341.143 260.218 341.584 261.296 342.466 261.982C343.38 262.668 344.54 263.011 345.945 263.011C348.166 263.011 350.012 262.407 351.482 261.198C352.952 259.957 353.687 258.062 353.687 255.514V253.162L349.816 253.309ZM380.516 266.49C377.25 266.49 374.636 265.363 372.676 263.109C370.716 260.822 369.736 257.425 369.736 252.917C369.736 248.409 370.716 245.012 372.676 242.725C374.669 240.406 377.299 239.246 380.565 239.246C381.937 239.246 383.13 239.426 384.142 239.785C385.155 240.112 386.037 240.569 386.788 241.157C387.54 241.745 388.177 242.398 388.699 243.117H388.993C388.961 242.692 388.895 242.072 388.797 241.255C388.732 240.406 388.699 239.736 388.699 239.246V228.76H393.011V266H389.532L388.895 262.472H388.699C388.177 263.223 387.54 263.909 386.788 264.53C386.037 265.118 385.139 265.592 384.093 265.951C383.081 266.31 381.888 266.49 380.516 266.49ZM381.202 262.913C383.979 262.913 385.923 262.162 387.033 260.659C388.177 259.124 388.748 256.821 388.748 253.75V252.966C388.748 249.699 388.209 247.2 387.131 245.469C386.053 243.705 384.061 242.823 381.153 242.823C378.834 242.823 377.086 243.754 375.91 245.616C374.767 247.445 374.195 249.912 374.195 253.015C374.195 256.151 374.767 258.585 375.91 260.316C377.086 262.047 378.85 262.913 381.202 262.913ZM416.641 239.246C418.895 239.246 420.822 239.736 422.423 240.716C424.056 241.696 425.298 243.084 426.147 244.881C427.029 246.645 427.47 248.719 427.47 251.104V253.701H409.487C409.552 256.674 410.304 258.944 411.741 260.512C413.211 262.047 415.253 262.815 417.866 262.815C419.532 262.815 421.002 262.668 422.276 262.374C423.583 262.047 424.922 261.59 426.294 261.002V264.775C424.955 265.363 423.632 265.788 422.325 266.049C421.018 266.343 419.467 266.49 417.67 266.49C415.187 266.49 412.982 265.984 411.055 264.971C409.16 263.958 407.674 262.456 406.596 260.463C405.551 258.438 405.028 255.971 405.028 253.064C405.028 250.189 405.502 247.723 406.449 245.665C407.429 243.607 408.785 242.023 410.516 240.912C412.28 239.801 414.322 239.246 416.641 239.246ZM416.592 242.774C414.534 242.774 412.901 243.444 411.692 244.783C410.516 246.09 409.814 247.919 409.585 250.271H422.962C422.962 248.768 422.733 247.462 422.276 246.351C421.819 245.24 421.116 244.375 420.169 243.754C419.254 243.101 418.062 242.774 416.592 242.774ZM451.551 239.246C452.041 239.246 452.564 239.279 453.119 239.344C453.707 239.377 454.213 239.442 454.638 239.54L454.099 243.509C453.674 243.411 453.201 243.329 452.678 243.264C452.188 243.199 451.714 243.166 451.257 243.166C450.244 243.166 449.281 243.378 448.366 243.803C447.451 244.228 446.635 244.832 445.916 245.616C445.197 246.367 444.626 247.282 444.201 248.36C443.809 249.438 443.613 250.647 443.613 251.986V266H439.301V239.736H442.829L443.319 244.538H443.515C444.07 243.558 444.74 242.676 445.524 241.892C446.308 241.075 447.206 240.438 448.219 239.981C449.232 239.491 450.342 239.246 451.551 239.246ZM481.788 258.748C481.788 260.447 481.364 261.868 480.514 263.011C479.665 264.154 478.456 265.02 476.888 265.608C475.32 266.196 473.458 266.49 471.302 266.49C469.473 266.49 467.889 266.343 466.549 266.049C465.243 265.755 464.083 265.347 463.07 264.824V260.904C464.116 261.427 465.373 261.917 466.843 262.374C468.346 262.799 469.865 263.011 471.4 263.011C473.589 263.011 475.173 262.668 476.153 261.982C477.133 261.263 477.623 260.316 477.623 259.14C477.623 258.487 477.444 257.899 477.084 257.376C476.725 256.853 476.072 256.331 475.124 255.808C474.21 255.285 472.887 254.697 471.155 254.044C469.457 253.391 468.003 252.737 466.794 252.084C465.586 251.431 464.655 250.647 464.001 249.732C463.348 248.817 463.021 247.641 463.021 246.204C463.021 243.983 463.92 242.268 465.716 241.059C467.546 239.85 469.93 239.246 472.87 239.246C474.471 239.246 475.957 239.409 477.329 239.736C478.734 240.03 480.041 240.455 481.249 241.01L479.779 244.44C479.061 244.113 478.293 243.836 477.476 243.607C476.692 243.346 475.892 243.15 475.075 243.019C474.259 242.856 473.426 242.774 472.576 242.774C470.812 242.774 469.457 243.068 468.509 243.656C467.595 244.211 467.137 244.979 467.137 245.959C467.137 246.678 467.35 247.298 467.774 247.821C468.199 248.311 468.901 248.801 469.881 249.291C470.894 249.748 472.233 250.304 473.899 250.957C475.565 251.578 476.986 252.215 478.162 252.868C479.338 253.521 480.237 254.322 480.857 255.269C481.478 256.184 481.788 257.343 481.788 258.748Z" fill="#9A8738"/>
</g>
<defs>
<clipPath id="clip0_15_93">
<rect width="500" height="500" fill="white"/>
</clipPath>
</defs>
</svg>
